/* XPM */
static char *result[] = {
/* columns rows colors chars-per-pixel */
"64 64 220 2 ",
"   c #000000",
".  c #0B0A03",
"X  c #0E0D0D",
"o  c #080A06",
"O  c #120708",
"+  c #081808",
"@  c #131313",
"#  c #1B1B1A",
"$  c #191907",
"%  c #221913",
"&  c #032703",
"*  c #173518",
"=  c #112512",
"-  c #37300C",
";  c #222222",
":  c #2A2B2A",
">  c #3A3A3A",
",  c #352D22",
"<  c #460616",
"1  c #453402",
"2  c #553B32",
"3  c #433626",
"4  c #024F02",
"5  c #235125",
"6  c #285D2B",
"7  c #224F24",
"8  c #377F3A",
"9  c #2D672F",
"0  c #1E4620",
"q  c #4A4411",
"w  c #554431",
"e  c #65713C",
"r  c #675C25",
"t  c #555555",
"y  c #484848",
"u  c #795548",
"i  c #795847",
"p  c #72524D",
"a  c #756549",
"s  c #6C6943",
"d  c #656565",
"f  c #6A6A6A",
"g  c #747474",
"h  c #5D5778",
"j  c #887E1F",
"k  c #A77B33",
"l  c #8F673D",
"z  c #EA433C",
"x  c #E6443F",
"c  c #F44336",
"v  c #F04338",
"b  c #B22742",
"n  c #CD1240",
"m  c #D11141",
"M  c #815D4B",
"N  c #914246",
"B  c #896747",
"V  c #9B7B45",
"C  c #8B6653",
"Z  c #94755A",
"A  c #994A75",
"S  c #924C7B",
"D  c #B64761",
"F  c #A04971",
"G  c #AC4868",
"H  c #BA475E",
"J  c #D6454B",
"K  c #DF4444",
"L  c #CC4652",
"P  c #039102",
"I  c #00AF00",
"U  c #3C8A3F",
"Y  c #4F8F30",
"T  c #10DB0E",
"R  c #01F101",
"E  c #01FE01",
"W  c #09FE02",
"Q  c #0CF10B",
"!  c #13E914",
"~  c #0AE207",
"^  c #2AFB0A",
"/  c #2AD12A",
"(  c #25CE1B",
")  c #54E930",
"_  c #3F9243",
"`  c #3FBC42",
"'  c #53954B",
"]  c #45A149",
"[  c #4BAE4F",
"{  c #48A44B",
"}  c #47B44B",
"|  c #4BAF50",
" . c #52B256",
".. c #56AD52",
"X. c #64B968",
"o. c #6FBF72",
"O. c #5EB762",
"+. c #72C075",
"@. c #998D23",
"#. c #A79A26",
"$. c #B9AA2B",
"%. c #A6A83A",
"&. c #F6BA0B",
"*. c #E1A90E",
"=. c #C69223",
"-. c #C7B82E",
";. c #D3B93E",
":. c #C8AF3F",
">. c #D29D1D",
",. c #FFC107",
"<. c #FFC40B",
"1. c #FECE18",
"2. c #DBC935",
"3. c #E1CD36",
"4. c #EAD837",
"5. c #F3DD3B",
"6. c #F6E339",
"7. c #FAE73A",
"8. c #FFEB3B",
"9. c #FFE533",
"0. c #AC8848",
"q. c #99997B",
"w. c #B2906D",
"e. c #BEB763",
"r. c #A6A471",
"t. c #CAAF40",
"y. c #C3A377",
"u. c #D0AE76",
"i. c #D4C856",
"p. c #F4E442",
"a. c #C9C970",
"s. c #3F51B5",
"d. c #3C57BB",
"f. c #3F4FB5",
"g. c #5D4E9F",
"h. c #7B4C8A",
"j. c #6A4D96",
"k. c #6E7390",
"l. c #4952AD",
"z. c #4353B4",
"x. c #4C5BB2",
"c. c #594EA3",
"v. c #5966AE",
"b. c #5E6AAD",
"n. c #5A67A4",
"m. c #5361B0",
"M. c #646EAC",
"N. c #6B75AA",
"B. c #6B75AA",
"V. c #727AA8",
"C. c #737CB0",
"Z. c #336CCD",
"A. c #3764C6",
"S. c #2D79D9",
"D. c #3171D2",
"F. c #395FC3",
"G. c #8E5C86",
"H. c #7F848C",
"J. c #7D83A6",
"K. c #3689DC",
"L. c #1F9AF3",
"P. c #2983E2",
"I. c #2689E7",
"U. c #2390ED",
"Y. c #2196F3",
"T. c #339CE4",
"R. c #19B1F3",
"E. c #0FD2F9",
"W. c #01FFFF",
"Q. c #0AFFFF",
"!. c #08E6FC",
"~. c #67FDFF",
"^. c #4AE9FC",
"/. c #8B8B8B",
"(. c #858685",
"). c #949494",
"_. c #9E9E9E",
"`. c #888CA3",
"'. c #9597A0",
"]. c #9A9EA1",
"[. c #8698AB",
"{. c #A2A2A2",
"}. c #ACACAC",
"|. c #BBBBBB",
" X c #B3B3B3",
".X c #A4A7BA",
"XX c #A6B88C",
"oX c #D6B985",
"OX c #D5B192",
"+X c #EABC87",
"@X c #B3DDB5",
"#X c #94CF97",
"$X c #E5C68C",
"%X c #FFCD93",
"&X c #F3CC91",
"*X c #FEDB9A",
"=X c #FCD396",
"-X c #ECCC92",
";X c #FFE39F",
":X c #FFDBAC",
">X c #FAD8A6",
",X c #FBD7AF",
"<X c #FFE0A4",
"1X c #DFC4B2",
"2X c #A7ACCF",
"3X c #89FFFF",
"4X c #AEFFFF",
"5X c #C9C9C9",
"6X c #D8D8D8",
"7X c #DAD0CC",
"8X c #D9EEDA",
"9X c #D7ECF7",
"0X c #E3E3E3",
"qX c #ECECEC",
"wX c #F5F5F4",
"eX c #FEFFFE",
"rX c #F7FAF5",
"tX c #E1F1E2",
"yX c #C0BAC8",
"uX c #65A520",
/* pixels */
"uXuXuXuXuXuXuXuXuXuXuXuXuXuXuXuXuXuXuXuXuXuXuXuXuXuXuXuXuXuXuXuXuXuXuXuXuXuXuXuXuXuXuXuXuXuXuXuXuXuXuXuXuXuXuXuXuXuXuXuXuXuXuXuX",
"uXuXuXuXuXuXuXuXuXuXuXuXuXuXuXuXuXuXuXuXuXuXuXuXuXuXuXuXuXuXuXuXuXuXuXuXuXuXuXuXuXuXuXuXuXuXuXuXuXuXuXuXuXuXuXuXuXuXuXuXuXuXuXuX",
"uXuXuXuXuXuXuXuXuXuXuXuXuXuXuXuXuXuXuXuXuXuXuXuXuXuXuXuXuXuXuXuXuXuXuXuXuXuXuXuXuXuXuXuXuXuXuXuXuXuXuXuXuXuXuXuXuXuXuXuXuXuXuXuX",
"uXuXuXuXuXuXuXuXuXuXuXuXuXuXuXuXuXuXuXuXuXuXuXuXuXuXuXuXuXuXuXuXuXuXuXuXuXuXuXuXuXuXuXuXuXuXuXuXuXuXuXuXuXuXuXuXuXuXuXuXuXuXuXuX",
"uXuXuXuXuXuXuXuXuXuXuXuXuXuXuXuXuXuXuXuXuXuXuXuXuXuXuXuXuXuXuXuXuXuXuXuXuXuXuXuXuXuXuXuXuXuXuXuXuXuXuXuXuXuXuXuXuXuXuXuXuXuXuXuX",
"uXuXuXuXuXuXuXuXuXuXuXuXuXuXuXuXuXuXuXuXuXuXuXuXuXuXuXuXuXuXuXuXuXuXuXuXuXuXuXuXuXuXuXuXuXuXuXuXuXuXuXuXuXuXuXuXuXuXuXuXuXuXuXuX",
"uXuXuXuXuXuXuXuXuXuXuXuXuXuXuXuXuXuXuXuXuXuXuXuXuXuXuXuXuXuXuXuXuXuXuXuXuXuXuXuXuXuXuXuXuXuXuXuXuXuXuXuXuXuXuXuXuXuXuXuXuXuXuXuX",
"uXuXuXuXuXuXuXuXuXuXuXuXuXuXuXuXuXuXuXuXuXuXuXuXuXuXuXuXuXuXuXuXuXuXuXuXuXuXuXuXuXuXuXuXuXuXuXuXuXuXuXuXuXuXuXuXuXuXuXuXuXuXuXuX",
"uXuXuXuXuXuXuXuXuXuXuXuXuXuXuXuXuXuXuXuXuXuXuXuXuXuXuXuXuXuXuXuXuXuXuXuXuXuXuXuXuXuXuXuXuXuXuXuXuXuXuXuXuXuXuXuXuXuXuXuXuXuXuXuX",
"uXuXuXuXuXuXuXuXuXuXuXuXuXuXuXuXuXuXuXuXuXuXuXuXuXuXuXuXuXuXuX      uXuXuXuXuXuXuXuXuXuXuXuXuXuXuXuXuXuXuXuXuXuXuXuXuXuXuXuXuXuX",
"uXuXuXuXuXuXuXuXuXuXuXuXuXuXuXuXuXuXuXuXuXuXuXuXuXuXuXuXuXuXuX      uXuXuXuXuXuXuXuXuXuXuXuXuXuXuXuXuXuXuXuXuXuXuXuXuXuXuXuXuXuX",
"uXuXuXuXuXuXuXuXuXuXuXuXuXuXuXuXuXuXuXuXuXuXuXuXuXuXuXuXuXuXuX      uXuXuXuXuXuXuXuXuXuXuXuXuXuXuXuXuXuXuXuXuXuXuXuXuXuXuXuXuXuX",
"uXuXuXuXuXuXuXuXuXuXuXuXuXuXuXuXuXuXuXuXuXuXuXuXuXuXuXuXuX    4.8.3.    uXuXuXuXuXuXuXuXuXuXuXuXuXuXuXuXuXuXuXuXuXuXuXuXuXuXuXuX",
"uXuXuXuXuXuXuXuXuXuXuXuXuXuXuXuXuXuXuXuXuXuXuXuXuXuXuXuXuX    4.8.3.    uXuXuXuXuXuXuXuXuXuXuXuXuXuXuXuXuXuXuXuXuXuXuXuXuXuXuXuX",
"uXuXuXuXuXuXuXuXuXuXuXuXuXuXuXuXuXuXuXuXuXuXuXuXuXuXuXuXuX    4.8.3.    uXuXuXuXuXuXuXuXuXuXuXuXuXuXuXuXuXuXuXuXuXuXuXuXuXuXuXuX",
"uXuXuXuXuXuXuXuXuXuXuXuXuXuXuXuXuXuXuXuXuXuXuXuXuXuXuXuXuX    4.8.3.    uXuXuXuXuXuXuXuXuXuXuXuXuXuXuXuXuXuXuXuXuXuXuXuXuXuXuXuX",
"uXuXuXuXuXuXuXuXuXuXuXuXuXuXuXuXuXuXuXuXuXuXuXuXuXuXuXuXuX    4.8.3.    uXuXuXuXuXuXuXuXuXuXuXuXuXuXuXuXuXuXuXuXuXuXuXuXuXuXuXuX",
"uXuXuXuXuXuXuXuXuXuXuXuXuXuXuXuXuXuXuXuXuXuXuXuXuXuX    q 6.8.8.8.8.8.8.-     uXuXuXuXuXuXuXuXuXuXuXuXuXuXuXuXuXuXuXuXuXuXuXuXuX",
"uXuXuXuXuXuXuXuXuXuXuXuXuXuXuXuXuXuXuXuXuXuXuXuXuXuX    q 8.8.8.8.8.8.8.-     uXuXuXuXuXuXuXuXuXuXuXuXuXuXuXuXuXuXuXuXuXuXuXuXuX",
"uXuXuXuXuXuXuXuXuXuXuXuXuXuXuXuXuXuXuXuXuXuXuXuXuXuX    q 8.8.8.8.8.8.8.-     uXuXuXuXuXuXuXuXuXuXuXuXuXuXuXuXuXuXuXuXuXuXuXuXuX",
"uXuXuXuXuXuXuXuXuXuXuXuXuXuXuXuXuXuXuXuXuXuXuXuXuXuX    1 8.8.8.8.8.8.8.-     uXuXuXuXuXuXuXuXuXuXuXuXuXuXuXuXuXuXuXuXuXuXuXuXuX",
"uXuXuXuXuXuXuXuXuXuXuXuXuXuXuXuXuXuXuXuXuXuXuXuXuXuX    q 8.8.8.8.8.8.8.-     uXuXuXuXuXuXuXuXuXuXuXuXuXuXuXuXuXuXuXuXuXuXuXuXuX",
"uXuXuXuXuXuXuXuXuXuXuXuXuXuXuXuXuXuXuXuXuXuXuXuX    4.4.5.8.8.8.8.8.8.8.4.4.3.    uXuXuXuXuXuXuXuXuXuXuXuXuXuXuXuXuXuXuXuXuXuXuX",
"uXuXuXuXuXuXuXuXuXuXuXuXuXuXuXuXuXuXuXuXuXuXuXuX    7.8.8.8.8.8.8.8.8.8.8.8.6.    uXuXuXuXuXuXuXuXuXuXuXuXuXuXuXuXuXuXuXuXuXuXuX",
"uXuXuXuXuXuXuXuXuXuXuXuXuXuXuXuXuXuXuXuXuXuXuXuX    7.8.8.p.8.8.8.8.8.8.8.8.6.    uXuXuXuXuXuXuXuXuXuXuXuXuXuXuXuXuXuXuXuXuXuXuX",
"uXuXuXuXuXuXuXuXuXuXuXuXuXuXuXuXuXuXuXuXuXuXuXuX    7.8.8.8.8.8.8.8.8.8.8.8.7.    uXuXuXuXuXuXuXuXuXuXuXuXuXuXuXuXuXuXuXuXuXuXuX",
"uXuXuXuXuXuXuXuXuXuXuXuXuXuXuXuXuXuXuXuXuXuXuXuX    7.8.8.8.8.8.8.8.8.8.8.8.7.    uXuXuXuXuXuXuXuXuXuXuXuXuXuXuXuXuXuXuXuXuXuXuX",
"uXuXuXuXuXuXuXuXuXuXuXuXuXuXuXuXuXuXuXuXuX    r -.-.8.8.8.8.8.8.8.8.8.8.8.8.8.-.-.q .   uXuXuXuXuXuXuXuXuXuXuXuXuXuXuXuXuXuXuXuX",
"uXuXuXuXuXuXuXuXuXuXuXuXuXuXuXuXuXuXuXuXuX  . r 8.8.8.8.8.8.8.8.8.8.8.8.8.8.8.8.9.r     uXuXuXuXuXuXuXuXuXuXuXuXuXuXuXuXuXuXuXuX",
"uXuXuXuXuXuXuXuXuXuXuXuXuXuXuXuXuXuXuXuXuX    r 6.6.7.7.6.6.7.7.6.6.6.6.6.6.6.6.6.r     uXuXuXuXuXuXuXuXuXuXuXuXuXuXuXuXuXuXuXuX",
"uXuXuXuXuXuXuXuXuXuXuXuXuXuXuXuXuXuXuXuXuX    .                                         uXuXuXuXuXuXuXuXuXuXuXuXuXuXuXuXuXuXuXuX",
"uXuXuXuXuXuXuXuXuXuXuXuXuXuXuXuXuXuXuXuXuX                                              uXuXuXuXuXuXuXuXuXuXuXuXuXuXuXuXuXuXuXuX",
"uXuXuXuXuXuXuXuXuXuXuXuXuXuXuXuXuXuXuXuXuX      uXuXuXuXuXuXuXuXuXuXuXuXuXuXuXuXuX      uXuXuXuXuXuXuXuXuXuXuXuXuXuXuXuXuXuXuXuX",
"uXuXuXuXuXuXuXuXuXuXuXuXuXuXuXuXuXuXuXuXuX      uXuXuXuXuXuXuXuXuXuXuXuXuXuXuXuXuX      uXuXuXuXuXuXuXuXuXuXuXuXuXuXuXuXuXuXuXuX",
"uXuXuXuXuXuXuXuXuXuXuXuXuXuXuXuXuXuXuXuXuX      uXuXuXuXuXuXuXuXuXuXuXuXuXuXuXuXuX      uXuXuXuXuXuXuXuXuXuXuXuXuXuXuXuXuXuXuXuX",
"uXuXuXuXuXuXuXuXuXuXuXuXuXuXuXuXuXuX      8.8.j     uXuXuXuXuXuXuXuXuXuXuXuXuX    @.8.8.      uXuXuXuXuXuXuXuXuXuXuXuXuXuXuXuXuX",
"uXuXuXuXuXuXuXuXuXuXuXuXuXuXuXuXuXuX      8.8.j     uXuXuXuXuXuXuXuXuXuXuXuXuX    @.8.8.      uXuXuXuXuXuXuXuXuXuXuXuXuXuXuXuXuX",
"uXuXuXuXuXuXuXuXuXuXuXuXuXuXuXuXuXuX      8.8.j     uXuXuXuXuXuXuXuXuXuXuXuXuX    @.8.8.      uXuXuXuXuXuXuXuXuXuXuXuXuXuXuXuXuX",
"uXuXuXuXuXuXuXuXuXuXuXuXuXuXuXuXuXuX      8.8.j     uXuXuXuXuXuXuXuXuXuXuXuXuX    @.8.8.      uXuXuXuXuXuXuXuXuXuXuXuXuXuXuXuXuX",
"uXuXuXuXuXuXuXuXuXuXuXuXuXuXuXuXuXuX    o 8.8.j     uXuXuXuXuXuXuXuXuXuXuXuXuX    @.8.8.      uXuXuXuXuXuXuXuXuXuXuXuXuXuXuXuXuX",
"uXuXuXuXuXuXuXuXuXuXuXuXuXuXuXuX    #.6.6.8.8.7.6.6.o     uXuXuXuXuXuXuX    . 6.6.7.8.8.7.7.@.    uXuXuXuXuXuXuXuXuXuXuXuXuXuXuX",
"uXuXuXuXuXuXuXuXuXuXuXuXuXuXuXuX    #.8.8.8.8.8.8.8.o     uXuXuXuXuXuXuX    . 8.8.8.8.8.8.8.@.    uXuXuXuXuXuXuXuXuXuXuXuXuXuXuX",
"uXuXuXuXuXuXuXuXuXuXuXuXuXuXuXuX    #.8.8.8.8.8.8.8.      uXuXuXuXuXuXuX    . 8.8.8.8.8.8.8.@.    uXuXuXuXuXuXuXuXuXuXuXuXuXuXuX",
"uXuXuXuXuXuXuXuXuXuXuXuXuXuXuXuX    #.8.8.8.8.8.8.8.      uXuXuXuXuXuXuX    . 8.8.8.8.8.8.8.@.    uXuXuXuXuXuXuXuXuXuXuXuXuXuXuX",
"uXuXuXuXuXuXuXuXuXuXuXuXuXuXuXuX    #.8.8.8.8.8.8.8.o     uXuXuXuXuXuXuX    . 8.8.8.8.8.8.8.@.    uXuXuXuXuXuXuXuXuXuXuXuXuXuXuX",
"uXuXuXuXuXuXuXuXuXuXuXuXuX    $ 3.3.6.8.8.8.8.8.8.8.3.3.#.    uXuXuX    $.2.3.8.8.8.8.8.8.8.6.2.2..     uXuXuXuXuXuXuXuXuXuXuXuX",
"uXuXuXuXuXuXuXuXuXuXuXuXuX    . 8.8.8.8.8.8.8.8.8.8.8.8.$.    uXuXuX    -.8.8.8.8.8.8.8.8.8.8.8.8..     uXuXuXuXuXuXuXuXuXuXuXuX",
"uXuXuXuXuXuXuXuXuXuXuXuXuX    . 8.8.8.8.8.8.8.8.8.8.8.8.$.    uXuXuX    -.8.8.8.8.8.8.8.8.8.8.8.8..     uXuXuXuXuXuXuXuXuXuXuXuX",
"uXuXuXuXuXuXuXuXuXuXuXuXuX    $ 8.8.8.8.8.8.8.8.8.8.8.8.$.    uXuXuX    -.8.8.8.8.8.8.8.8.8.8.8.8..     uXuXuXuXuXuXuXuXuXuXuXuX",
"uXuXuXuXuXuXuXuXuXuXuXuXuX    . 8.8.8.8.8.8.8.8.8.8.8.8.$.    uXuXuX    -.8.8.8.8.8.8.8.8.8.8.8.8..     uXuXuXuXuXuXuXuXuXuXuXuX",
"uXuXuXuXuXuXuXuXuXuXuX    #.$.$.8.8.8.8.8.8.8.8.8.8.8.8.4.$.$.$   $ $.$.5.8.8.8.8.8.8.8.8.8.8.8.8.$.$.@.    uXuXuXuXuXuXuXuXuXuX",
"uXuXuXuXuXuXuXuXuXuXuX    -.8.8.8.8.8.8.8.8.8.8.8.8.8.8.8.8.8.$   $ 8.8.8.8.8.8.8.8.8.8.8.8.8.8.8.8.8.-.    uXuXuXuXuXuXuXuXuXuX",
"uXuXuXuXuXuXuXuXuXuXuX    2.7.7.7.7.7.7.7.7.7.7.7.7.7.7.7.7.7.$   $ 7.8.7.7.7.7.7.7.7.7.7.7.7.7.7.7.7.-.    uXuXuXuXuXuXuXuXuXuX",
"uXuXuXuXuXuXuXuXuXuXuX                                                                                      uXuXuXuXuXuXuXuXuXuX",
"uXuXuXuXuXuXuXuXuXuXuX                                                                                      uXuXuXuXuXuXuXuXuXuX",
"uXuXuXuXuXuXuXuXuXuXuXuXuXuXuXuXuXuXuXuXuXuXuXuXuXuXuXuXuXuXuXuXuXuXuXuXuXuXuXuXuXuXuXuXuXuXuXuXuXuXuXuXuXuXuXuXuXuXuXuXuXuXuXuX",
"uXuXuXuXuXuXuXuXuXuXuXuXuXuXuXuXuXuXuXuXuXuXuXuXuXuXuXuXuXuXuXuXuXuXuXuXuXuXuXuXuXuXuXuXuXuXuXuXuXuXuXuXuXuXuXuXuXuXuXuXuXuXuXuX",
"uXuXuXuXuXuXuXuXuXuXuXuXuXuXuXuXuXuXuXuXuXuXuXuXuXuXuXuXuXuXuXuXuXuXuXuXuXuXuXuXuXuXuXuXuXuXuXuXuXuXuXuXuXuXuXuXuXuXuXuXuXuXuXuX",
"uXuXuXuXuXuXuXuXuXuXuXuXuXuXuXuXuXuXuXuXuXuXuXuXuXuXuXuXuXuXuXuXuXuXuXuXuXuXuXuXuXuXuXuXuXuXuXuXuXuXuXuXuXuXuXuXuXuXuXuXuXuXuXuX",
"uXuXuXuXuXuXuXuXuXuXuXuXuXuXuXuXuXuXuXuXuXuXuXuXuXuXuXuXuXuXuXuXuXuXuXuXuXuXuXuXuXuXuXuXuXuXuXuXuXuXuXuXuXuXuXuXuXuXuXuXuXuXuXuX",
"uXuXuXuXuXuXuXuXuXuXuXuXuXuXuXuXuXuXuXuXuXuXuXuXuXuXuXuXuXuXuXuXuXuXuXuXuXuXuXuXuXuXuXuXuXuXuXuXuXuXuXuXuXuXuXuXuXuXuXuXuXuXuXuX",
"uXuXuXuXuXuXuXuXuXuXuXuXuXuXuXuXuXuXuXuXuXuXuXuXuXuXuXuXuXuXuXuXuXuXuXuXuXuXuXuXuXuXuXuXuXuXuXuXuXuXuXuXuXuXuXuXuXuXuXuXuXuXuXuX",
"uXuXuXuXuXuXuXuXuXuXuXuXuXuXuXuXuXuXuXuXuXuXuXuXuXuXuXuXuXuXuXuXuXuXuXuXuXuXuXuXuXuXuXuXuXuXuXuXuXuXuXuXuXuXuXuXuXuXuXuXuXuXuXuX",
"uXuXuXuXuXuXuXuXuXuXuXuXuXuXuXuXuXuXuXuXuXuXuXuXuXuXuXuXuXuXuXuXuXuXuXuXuXuXuXuXuXuXuXuXuXuXuXuXuXuXuXuXuXuXuXuXuXuXuXuXuXuXuXuX"
};