/* XPM */
static char *result[] = {
/* columns rows colors chars-per-pixel */
"64 64 171 2 ",
"   c #010100",
".  c #090705",
"X  c #060C02",
"o  c #0C0802",
"O  c #020309",
"+  c #0B0D09",
"@  c #120C04",
"#  c #100D09",
"$  c #0B1606",
"%  c #1B1204",
"&  c #171407",
"*  c #161713",
"=  c #221D0D",
"-  c #19330C",
";  c #3C3328",
":  c #343434",
">  c #412F07",
",  c #46330A",
"<  c #4A3508",
"1  c #473C09",
"2  c #4E390A",
"3  c #453207",
"4  c #533C0C",
"5  c #53380A",
"6  c #42331C",
"7  c #543E13",
"8  c #63360C",
"9  c #403222",
"0  c #295B11",
"q  c #234E0E",
"w  c #2F6713",
"e  c #316C14",
"r  c #356C1B",
"t  c #367617",
"y  c #38751B",
"u  c #3A7620",
"i  c #3A683C",
"p  c #4D4A0D",
"a  c #4B400B",
"s  c #5E410D",
"d  c #5D4A0E",
"f  c #524E0F",
"g  c #5A4316",
"h  c #5B4419",
"j  c #574015",
"k  c #585211",
"l  c #5E5819",
"z  c #4F5C12",
"x  c #65490F",
"c  c #65470F",
"v  c #634F11",
"b  c #6A4E12",
"n  c #644B1C",
"m  c #665311",
"M  c #6D5015",
"N  c #6B5913",
"B  c #675916",
"V  c #72581E",
"C  c #406213",
"Z  c #626014",
"A  c #5F4C25",
"S  c #585B2D",
"D  c #705422",
"F  c #656828",
"G  c #121547",
"H  c #1D1F48",
"J  c #202777",
"K  c #5B4A4B",
"L  c #5C5D47",
"P  c #457C47",
"I  c #833810",
"U  c #803710",
"Y  c #943912",
"T  c #D93A1C",
"R  c #E33A1E",
"E  c #ED3D1F",
"W  c #9A7C5B",
"Q  c #957756",
"!  c #86744C",
"~  c #41832E",
"^  c #468732",
"/  c #6B9421",
"(  c #57A927",
")  c #56B229",
"_  c #5DB429",
"`  c #5ABA2B",
"'  c #61B82E",
"]  c #5EC32D",
"[  c #60C62E",
"{  c #549D4D",
"}  c #559958",
"|  c #5CB845",
" . c #5EAA5C",
".. c #5FA47F",
"X. c #65B165",
"o. c #65B568",
"O. c #CA832C",
"+. c #D78C2E",
"@. c #DA8E2E",
"#. c #DD912F",
"$. c #DF9130",
"%. c #E29331",
"&. c #E29C32",
"*. c #EE9A34",
"=. c #F69F36",
"-. c #D2BE35",
";. c #F6A236",
":. c #F7A837",
">. c #F7AB38",
",. c #F7B439",
"<. c #EFA736",
"1. c #D4CE38",
"2. c #DED438",
"3. c #E3DA3A",
"4. c #E0D639",
"5. c #E9E13C",
"6. c #E1E93E",
"7. c #F8E13F",
"8. c #8A8255",
"9. c #9F805E",
"0. c #A2825E",
"q. c #9F8161",
"w. c #A38464",
"e. c #A78769",
"r. c #AA8A6B",
"t. c #AB8A67",
"y. c #B18F6F",
"u. c #B58E61",
"i. c #B4916F",
"p. c #B59271",
"a. c #B99573",
"s. c #C29C77",
"d. c #D7A973",
"f. c #D6AA79",
"g. c #C8DE4D",
"h. c #CEE24F",
"j. c #FCE540",
"k. c #F6EF40",
"l. c #E8F040",
"z. c #FEF743",
"x. c #F6F241",
"c. c #1A2587",
"v. c #242D8A",
"b. c #363F95",
"n. c #374096",
"m. c #4D4A89",
"M. c #544F89",
"N. c #646095",
"B. c #3F4BF9",
"V. c #3F4CF2",
"C. c #445ED9",
"Z. c #4357E8",
"A. c #4851F4",
"S. c #D3AB81",
"D. c #E3B585",
"F. c #EDBD8B",
"G. c #F2C28D",
"H. c #F5C392",
"J. c #F9C691",
"K. c #F9C895",
"L. c #F9CA99",
"P. c #F3C598",
"I. c #ECC189",
"U. c #D2D3DE",
"Y. c #E3DDD8",
"T. c #DEDFED",
"R. c #FEF2E5",
"E. c #F2F1EE",
"W. c #FEFEFE",
"Q. c #F2EFEA",
"!. c #65A520",
/* pixels */
"!.!.!.!.!.!.!.!.!.!.!.!.!.!.!.!.!.!.!.!.!.!.!.!.!.!.!.!.!.!.!.!.!.!.!.!.!.!.!.!.!.!.!.!.!.!.!.!.!.!.!.!.!.!.!.!.!.!.!.!.!.!.!.!.",
"!.!.!.!.!.!.!.!.!.!.!.!.!.!.!.!.!.!.!.!.!.!.!.!.!.!.!.!.!.!.!.!.!.!.!.!.!.!.!.!.!.!.!.!.!.!.!.!.!.!.!.!.!.!.!.!.!.!.!.!.!.!.!.!.",
"!.!.!.!.!.!.!.!.!.!.!.!.!.!.!.!.!.!.!.!.!.!.!.!.!.!.!.!.!.!.!.!.!.!.!.!.!.!.!.!.!.!.!.!.!.!.!.!.!.!.!.!.!.!.!.!.!.!.!.!.!.!.!.!.",
"!.!.!.!.!.!.!.!.!.!.!.!.!.!.!.!.!.!.!.!.!.!.!.!.!.!.!.!.!.!.!.!.!.!.!.!.!.!.!.!.!.!.!.!.!.!.!.!.!.!.!.!.!.!.!.!.!.!.!.!.!.!.!.!.",
"!.!.!.!.!.!.!.!.!.!.!.!.!.!.!.!.!.!.!.!.!.!.!.!.!.!.    X e e e e e e e e e 0     !.!.!.!.!.!.!.!.!.!.!.!.!.!.!.!.!.!.!.!.!.!.!.",
"!.!.!.!.!.!.!.!.!.!.!.!.!.!.!.!.!.!.!.!.!.!.!.!.!.!.    X e e e e e e e e e 0     !.!.!.!.!.!.!.!.!.!.!.!.!.!.!.!.!.!.!.!.!.!.!.",
"!.!.!.!.!.!.!.!.!.!.!.!.!.!.!.!.!.!.!.!.!.!.!.!.!.!.X X $ t t t t t t t t t w X X !.!.!.!.!.!.!.!.!.!.!.!.!.!.!.!.!.!.!.!.!.!.!.",
"!.!.!.!.!.!.!.!.!.!.!.!.!.!.!.!.!.!.!.!.!.!.!.!.    w e t [ [ [ [ [ [ [ ] ] ` e e       !.!.!.!.!.!.!.!.!.!.!.!.!.!.!.!.!.!.!.!.",
"!.!.!.!.!.!.!.!.!.!.!.!.!.!.!.!.!.!.!.!.!.!.!.!.    w e t [ [ [ [ [ [ [ [ [ ` e e       !.!.!.!.!.!.!.!.!.!.!.!.!.!.!.!.!.!.!.!.",
"!.!.!.!.!.!.!.!.!.!.!.!.!.!.!.!.!.!.!.!.!.    X 0 0 ) ` ` [ [ [ [ [ [ [ [ [ ] ` ` 0 0 q     !.!.!.!.!.!.!.!.!.!.!.!.!.!.!.!.!.!.",
"!.!.!.!.!.!.!.!.!.!.!.!.!.!.!.!.!.!.!.!.!.    X e e ] [ [ [ [ [ [ [ [ [ [ [ [ [ ] t e 0     !.!.!.!.!.!.!.!.!.!.!.!.!.!.!.!.!.!.",
"!.!.!.!.!.!.!.!.!.!.!.!.!.!.!.!.!.!.!.!.!.X X $ t t ] [ [ [ [ [ [ [ [ [ [ [ [ [ ] t t w X X !.!.!.!.!.!.!.!.!.!.!.!.!.!.!.!.!.!.",
"!.!.!.!.!.!.!.!.!.!.!.!.!.!.!.!.!.!.!.    w e t ] [ [ [ [ [ [ [ [ [ [ [ [ [ [ [ ] [ [ ` e e       !.!.!.!.!.!.!.!.!.!.!.!.!.!.!.",
"!.!.!.!.!.!.!.!.!.!.!.!.!.!.!.!.!.!.!.    w e t [ [ [ [ [ [ [ [ [ [ [ [ [ [ [ [ [ [ ] ` e e       !.!.!.!.!.!.!.!.!.!.!.!.!.!.!.",
"!.!.!.!.!.!.!.!.!.!.!.!.!.!.!.!.!.!.!.    ) ` ) p p 6.l.l.l.l.l.l.l.l.l.l.l.l.l.l.k p z ` ` X     !.!.!.!.!.!.!.!.!.!.!.!.!.!.!.",
"!.!.!.!.!.!.!.!.!.!.!.!.!.!.!.!.!.!.!.    ` [ _ < < x.z.z.z.z.z.z.z.z.z.z.z.z.z.z.a < p ] [       !.!.!.!.!.!.!.!.!.!.!.!.!.!.!.",
"!.!.!.!.!.!.!.!.!.!.!.!.!.!.!.!.!.!.!.X X ( _ ( m m k.z.z.z.z.z.z.z.z.z.z.z.z.z.z.m x Z _ _ $ X X !.!.!.!.!.!.!.!.!.!.!.!.!.!.!.",
"!.!.!.!.!.!.!.!.!.!.!.!.!.!.!.!.    X e e 1 < v z.z.z.z.z.z.z.z.z.z.z.z.z.z.z.z.z.z.z.3.< < e e 0     !.!.!.!.!.!.!.!.!.!.!.!.!.",
"!.!.!.!.!.!.!.!.!.!.!.!.!.!.!.!.    X e e 1 < x z.z.z.z.z.z.z.z.z.z.z.z.z.z.z.z.z.z.z.4.< < e e 0     !.!.!.!.!.!.!.!.!.!.!.!.!.",
"!.!.!.!.!.!.!.!.!.!.!.< < 7 r.r., > > 1 1 @.%.&.z.z.>.:.,.z.z.z.z.z.z.z.>.>.&.d d z.z.z.5.5.a 1 1 > > e.r.W < < !.!.!.!.!.!.!.!.",
"!.!.!.!.!.!.!.!.!.!.!.< < 7 r.r.4 < < < < *.;.:.z.z.;.;.>.z.z.z.z.z.z.z.;.;.@.< 1 7.z.z.z.z.2 < < < < t.r.Q < < !.!.!.!.!.!.!.!.",
"!.!.!.!.!.!.!.!.!.!.!.< < 7 i.i.D n n < < ;.>.,.3.3.>.>.,.z.z.z.z.z.z.z.#.@.O.g g 2.5.5.z.z.2 2 2 n n y.p.0.< < !.!.!.!.!.!.!.!.",
"!.!.!.!.!.!.!.!.!.!.!.< < g J.J.G.J.D.< < k.z.5.< < x.z.z.z.z.z.z.z.z.z.4 < j r.r.2 1 v z.z.2 < n K.K.J.K.f.5 < !.!.!.!.!.!.!.!.",
"!.!.!.!.!.!.!.!.!.!.!.< < g J.J.J.J.D.< < k.z.5.< < x.z.z.z.z.z.z.z.z.z.2 < g e.r.2 3 m z.z.2 < n K.K.J.J.d.< < !.!.!.!.!.!.!.!.",
"!.!.!.!.!.!.!.!.!.!.!.!.!.!.h h r.p.w.< 3 x d N %.%.7.z.z.z.z.>.>.&.d d W q.r.G.F.5 2 c :.:.< < g y.y.n h g !.!.!.!.!.!.!.!.!.!.",
"!.!.!.!.!.!.!.!.!.!.!.!.!.!.< < w.r.q.< 2 2 3 s ;.=.7.z.z.z.z.;.;.%.< < e.r.p.H.H.2 < c =.=.2 < g r.r.< < < !.!.!.!.!.!.!.!.!.!.",
"!.!.!.!.!.!.!.!.!.!.!.!.!.!.< < Q Q Q N N a < s =.=.7.z.j.2.4.@.+.O.h h i.a.s.H.J.n g D +.+.N M V W W < < < !.!.!.!.!.!.!.!.!.!.",
"!.!.!.!.!.!.!.!.!.!.!.!.!.!.!.!.< < d z.7.a < s =.;.:.:.%.< < < < j r.e.G.J.J.J.J.r.r.W < < z.z.2.< < !.!.!.!.!.!.!.!.!.!.!.!.!.",
"!.!.!.!.!.!.!.!.!.!.!.!.!.!.!.!.< < v 7.z.f < s ;.=.=.=.%.< < < 5 7 r.r.J.J.J.J.J.r.r.W < < x.z.3.2 < !.!.!.!.!.!.!.!.!.!.!.!.!.",
"!.!.!.!.!.!.!.!.!.!.!.!.!.!.!.!.o   = z.7.s < 3 @ @ 4 4 4 < < W w.t.G.F.i.r.w.g g # # & < < z.z.1.    !.!.!.!.!.!.!.!.!.!.!.!.!.",
"!.!.!.!.!.!.!.!.!.!.!.!.!.!.!.!.    & z.z.s 1 >     < < 5 < < e.r.y.J.J.r.r.9.< <     . < < x.z.1.    !.!.!.!.!.!.!.!.!.!.!.!.!.",
"!.!.!.!.!.!.!.!.!.!.!.!.!.!.!.!.    & 7.7.f 3 3 : : 9 9 6 < < y.a.s.J.J.W Q ! 9 9 : : ; < < j.j.-.    !.!.!.!.!.!.!.!.!.!.!.!.!.",
"!.!.!.!.!.!.!.!.!.!.!.!.!.!.!.!.    & =.=.5 5 A W.W.v.c.J < < G.J.J.J.J.5 < 9 c.c.E.W.Y.1 < =.=.O.    !.!.!.!.!.!.!.!.!.!.!.!.!.",
"!.!.!.!.!.!.!.!.!.!.!.!.!.!.!.!.    % =.=.5 2 A W.W.v.c.J < < G.J.J.J.J.2 < 6 c.c.W.W.Y.< < =.;.O.    !.!.!.!.!.!.!.!.!.!.!.!.!.",
"!.!.!.!.!.!.!.!.!.!.!.!.!.!.!.!.!.!.!.@ @     = L.L.v.c.b.E.E.K.J.J.J.J.E.E.U.c.c.P.P.S.    @ @ @ !.!.!.!.!.!.!.!.!.!.!.!.!.!.!.",
"!.!.!.!.!.!.!.!.!.!.!.!.!.!.!.!.!.!.!.        * J.J.v.c.n.W.W.K.J.J.J.J.W.W.T.c.c.H.J.f.          !.!.!.!.!.!.!.!.!.!.!.!.!.!.!.",
"!.!.!.!.!.!.!.!.!.!.!.!.!.!.!.!.!.!.!.        & d.d.M.m.N.R.R.K.J.J.J.J.R.R.Y.m.m.d.d.u.          !.!.!.!.!.!.!.!.!.!.!.!.!.!.!.",
"!.!.!.!.!.!.!.!.!.!.!.!.!.!.!.!.!.!.!.!.!.    o v c G.J.J.J.K.J.J.J.J.J.J.J.J.J.J.M x 4     !.!.!.!.!.!.!.!.!.!.!.!.!.!.!.!.!.!.",
"!.!.!.!.!.!.!.!.!.!.!.!.!.!.!.!.!.!.!.!.!.    o x x G.J.K.J.J.K.J.J.J.J.J.J.J.J.J.x x j     !.!.!.!.!.!.!.!.!.!.!.!.!.!.!.!.!.!.",
"!.!.!.!.!.!.!.!.!.!.!.!.!.!.!.!.!.!.!.    ) ` _ x c M M V y.r.r.y.r.r.y.t.y.0.b M x x B ` `       !.!.!.!.!.!.!.!.!.!.!.!.!.!.!.",
"!.!.!.!.!.!.!.!.!.!.!.!.!.!.!.!.!.!.!.    ` [ ' c c c v M r.e.r.r.r.e.r.r.r.9.x x x x Z [ [ X     !.!.!.!.!.!.!.!.!.!.!.!.!.!.!.",
"!.!.!.!.!.!.!.!.!.!.!.!.!.!.!.!.!.!.!.- - ` [ ' K K k k l Q 8.8.Q 8.8.8.8.8.! k k K K L [ [ - - - !.!.!.!.!.!.!.!.!.!.!.!.!.!.!.",
"!.!.!.!.!.!.!.!.!.!.!.!.!.!.!.!.    $ [ [ [ [ | B.B.r e e e e e e e e e e e e e e V.V.C.[ [ [ [ (     !.!.!.!.!.!.!.!.!.!.!.!.!.",
"!.!.!.!.!.!.!.!.!.!.!.!.!.!.!.!.    $ ] [ [ [ | B.B.r e e e e e e e e e e e e e e V.V.C.[ [ [ ] (     !.!.!.!.!.!.!.!.!.!.!.!.!.",
"!.!.!.!.!.!.!.!.!.!.!.!.!.!.    D.F.F.G.H.& X $ n n e e e e e e e e e e e e e e e n n 7 o . G.G.I.F.F..     !.!.!.!.!.!.!.!.!.!.",
"!.!.!.!.!.!.!.!.!.!.!.!.!.!.    F.J.J.J.J.+   o x x e e e e e e e e e e e e e e e v c 4     F.J.H.J.J.      !.!.!.!.!.!.!.!.!.!.",
"!.!.!.!.!.!.!.!.!.!.!.!.!.!.    f.D.D.J.J.H G H F F C C C C C / / / / / r C C C w F F S G G F.J.H.D.D..     !.!.!.!.!.!.!.!.!.!.",
"!.!.!.!.!.!.!.!.!.!.!.!.!.!.    q.r.y.J.J.A.B.Z.o.o.b x x c x x.z.z.z.z.b x x x c X.o...A.B.P.J.F.r.r.      !.!.!.!.!.!.!.!.!.!.",
"!.!.!.!.!.!.!.!.!.!.!.!.!.!.    w.r.y.H.J.A.B.V.o.o.m x x x x k.z.z.z.z.b c c v x X.o...B.B.H.J.F.e.r.      !.!.!.!.!.!.!.!.!.!.",
"!.!.!.!.!.!.!.!.!.!.!.!.!.!.!.!.  . . . . O O * o.o.X.X. .e e x.z.z.z.z.r e u o.X.o.o.} O O . . . . . !.!.!.!.!.!.!.!.!.!.!.!.!.",
"!.!.!.!.!.!.!.!.!.!.!.!.!.!.!.!.              $ o.o.o.o. .w e x.z.z.7.z.t e u o.o.o.o.}               !.!.!.!.!.!.!.!.!.!.!.!.!.",
"!.!.!.!.!.!.!.!.!.!.!.!.!.!.!.!.              + P P { { { ~ ~ g.h.h.h.h.^ ~ ^ { { P P i               !.!.!.!.!.!.!.!.!.!.!.!.!.",
"!.!.!.!.!.!.!.!.!.!.!.!.!.!.!.!.!.!.!.!.!.          w e y o.o.o.o.o.o.o.o.o. .e e           !.!.!.!.!.!.!.!.!.!.!.!.!.!.!.!.!.!.",
"!.!.!.!.!.!.!.!.!.!.!.!.!.!.!.!.!.!.!.!.!.          w t y o.o.o.o.o.o.o.o.o. .e e           !.!.!.!.!.!.!.!.!.!.!.!.!.!.!.!.!.!.",
"!.!.!.!.!.!.!.!.!.!.!.!.!.!.!.!.!.!.!.    T E T < <       O   X O   X X   X O     3 < 8 E E       !.!.!.!.!.!.!.!.!.!.!.!.!.!.!.",
"!.!.!.!.!.!.!.!.!.!.!.!.!.!.!.!.!.!.!.    R E T < <                               < < 8 E E       !.!.!.!.!.!.!.!.!.!.!.!.!.!.!.",
"!.!.!.!.!.!.!.!.!.!.!.!.!.!.!.!.!.!.!.    R E E I I % % @                     % % 8 Y Y E E o     !.!.!.!.!.!.!.!.!.!.!.!.!.!.!.",
"!.!.!.!.!.!.!.!.!.!.!.!.!.!.!.!.!.!.!.    R E E E E 5 < >     !.!.!.!.!.    o < < E E E E E       !.!.!.!.!.!.!.!.!.!.!.!.!.!.!.",
"!.!.!.!.!.!.!.!.!.!.!.!.!.!.!.!.!.!.!.    R E E E E 5 < >     !.!.!.!.!.    . < 5 E E E E E o     !.!.!.!.!.!.!.!.!.!.!.!.!.!.!.",
"!.!.!.!.!.!.!.!.!.!.!.!.!.!.!.!.!.!.!.!.!.                !.!.!.!.!.!.!.!.!.!.          o   !.!.!.!.!.!.!.!.!.!.!.!.!.!.!.!.!.!.",
"!.!.!.!.!.!.!.!.!.!.!.!.!.!.!.!.!.!.!.!.!.                !.!.!.!.!.!.!.!.!.!.              !.!.!.!.!.!.!.!.!.!.!.!.!.!.!.!.!.!.",
"!.!.!.!.!.!.!.!.!.!.!.!.!.!.!.!.!.!.!.!.!.                !.!.!.!.!.!.!.!.!.!.              !.!.!.!.!.!.!.!.!.!.!.!.!.!.!.!.!.!.",
"!.!.!.!.!.!.!.!.!.!.!.!.!.!.!.!.!.!.!.!.!.!.!.!.!.!.!.!.!.!.!.!.!.!.!.!.!.!.!.!.!.!.!.!.!.!.!.!.!.!.!.!.!.!.!.!.!.!.!.!.!.!.!.!.",
"!.!.!.!.!.!.!.!.!.!.!.!.!.!.!.!.!.!.!.!.!.!.!.!.!.!.!.!.!.!.!.!.!.!.!.!.!.!.!.!.!.!.!.!.!.!.!.!.!.!.!.!.!.!.!.!.!.!.!.!.!.!.!.!."
};
