/* XPM */
static char *result[] = {
/* columns rows colors chars-per-pixel */
"64 64 163 2 ",
"   c #31103F",
".  c #193D3B",
"X  c #17323F",
"o  c #5C2414",
"O  c #612713",
"+  c #622D1E",
"@  c #642A16",
"#  c #6E3217",
"$  c #783716",
"%  c #71361B",
"&  c #753B1C",
"*  c #793E1A",
"=  c #703215",
"-  c #44182F",
";  c #5B2B26",
":  c #5A2C2D",
">  c #52262E",
",  c #4F2839",
"<  c #4C2138",
"1  c #532632",
"2  c #552931",
"3  c #6B3524",
"4  c #633128",
"5  c #166F1F",
"6  c #147E17",
"7  c #17731E",
"8  c #19711F",
"9  c #157A1A",
"0  c #1B7D1B",
"q  c #20781F",
"w  c #19572E",
"e  c #1A5A2D",
"r  c #1A4736",
"t  c #1A4B35",
"y  c #1A433B",
"u  c #124B30",
"i  c #165030",
"p  c #1A5232",
"a  c #21443C",
"s  c #205831",
"d  c #156326",
"f  c #1A6626",
"g  c #156C21",
"h  c #196A24",
"j  c #1A6328",
"k  c #177220",
"l  c #187020",
"z  c #236D26",
"x  c #267126",
"c  c #2B7525",
"v  c #217A20",
"b  c #2F7825",
"n  c #327C24",
"m  c #7E411D",
"M  c #447E29",
"N  c #426935",
"B  c #18164F",
"V  c #1A1E4B",
"C  c #12164B",
"Z  c #1A0757",
"A  c #1A0955",
"S  c #19015A",
"D  c #1A0858",
"F  c #171052",
"G  c #191350",
"H  c #260E4F",
"J  c #231D4F",
"K  c #381744",
"L  c #3C1A43",
"P  c #311448",
"I  c #210853",
"U  c #271154",
"Y  c #241C51",
"T  c #331952",
"R  c #321751",
"E  c #192647",
"W  c #192E42",
"Q  c #19224A",
"!  c #1A2A49",
"~  c #152744",
"^  c #1A3142",
"/  c #173343",
"(  c #1D0E66",
")  c #1F1066",
"_  c #200F69",
"`  c #211266",
"'  c #27186B",
"]  c #261D76",
"[  c #2A1C75",
"{  c #2A1C78",
"}  c #2D227A",
"|  c #33287B",
" . c #411F43",
".. c #4C2C4E",
"X. c #502F4F",
"o. c #542F43",
"O. c #4A2E57",
"+. c #4C3362",
"@. c #85441A",
"#. c #8E4A1C",
"$. c #89451B",
"%. c #934E1E",
"&. c #9A531F",
"*. c #A2571F",
"=. c #A4591F",
"-. c #A65B20",
";. c #AC5F20",
":. c #AE6020",
">. c #0E8312",
",. c #138413",
"<. c #1C8616",
"1. c #158812",
"2. c #1D8915",
"3. c #258D16",
"4. c #2B8E17",
"5. c #25841A",
"6. c #35861F",
"7. c #348C1C",
"8. c #2E9017",
"9. c #319317",
"0. c #3A9817",
"q. c #319118",
"w. c #3A951A",
"e. c #3F9918",
"r. c #378226",
"t. c #3C8323",
"y. c #41961B",
"u. c #46991B",
"i. c #4B9B1C",
"p. c #48951E",
"a. c #529D1D",
"s. c #5BA11E",
"d. c #61A41F",
"f. c #66AA1E",
"g. c #62B11D",
"h. c #438A23",
"j. c #4A8E22",
"k. c #538A28",
"l. c #4B9223",
"z. c #5A9E24",
"x. c #5F9328",
"c. c #569B22",
"v. c #5EA223",
"b. c #65A520",
"n. c #68A620",
"m. c #6AAA21",
"M. c #70AE22",
"N. c #6CB023",
"B. c #73B322",
"V. c #78B723",
"C. c #77B823",
"Z. c #7BBB24",
"A. c #7CC025",
"S. c #80BF24",
"D. c #85C425",
"F. c #88C726",
"G. c #8AC926",
"H. c #3B358E",
"J. c #3E3A92",
"K. c #403A8E",
"L. c #423986",
"P. c #403C93",
"I. c #65A520",
/* pixels */
"I.I.I.I.I.I.I.I.I.I.I.I.I.I.I.I.I.I.I.I.I.I.I.I.I.j h j j f f j f f j h j h j I.I.I.I.I.I.I.I.I.I.I.I.I.I.I.I.I.I.I.I.I.I.I.I.I.",
"I.I.I.I.I.I.I.I.I.I.I.I.I.I.I.I.I.I.I.I.I.I.I.j d t.l.l.v.b.v.j.j.l.l.h.0 9 7 d f I.I.I.I.I.I.I.I.I.I.I.I.I.I.I.I.I.I.I.I.I.I.I.",
"I.I.I.I.I.I.I.I.I.I.I.I.I.I.I.I.I.I.I.I.I.I.x r.h.b.V.V.Z.A.V.b.m.b.m.v.9.8.7.r.l g I.I.I.I.I.I.I.I.I.I.I.I.I.I.I.I.I.I.I.I.I.I.",
"I.I.I.I.I.I.I.I.I.I.I.I.I.I.I.I.I.I.I.I.I.z t.N.D.F.F.Z.m.b.b.b.b.b.b.b.b.b.b.s.4.v z I.I.I.I.I.I.I.I.I.I.I.I.I.I.I.I.I.I.I.I.I.",
"I.I.I.I.I.I.I.I.I.I.I.I.I.I.I.I.I.I.I.I.j h.N.D.F.C.m.m.b.b.b.b.b.b.b.b.b.b.b.b.v.v.h.j I.I.I.I.I.I.I.I.I.I.I.I.I.I.I.I.I.I.I.I.",
"I.I.I.I.I.I.I.I.I.I.I.I.I.I.I.I.I.I.I.f h.N.D.F.B.m.b.b.b.b.b.b.b.b.b.b.b.b.b.m.Z.S.m.h.J I.I.I.I.I.I.I.I.I.I.I.I.I.I.I.I.I.I.I.",
"I.I.I.I.I.I.I.I.I.I.I.I.I.I.I.I.I.I.c l.N.Z.Z.C.b.b.b.b.b.b.b.b.b.b.b.b.b.b.b.n.V.F.D.n.a C I.I.I.I.I.I.I.I.I.I.I.I.I.I.I.I.I.I.",
"I.I.I.I.I.I.I.I.I.I.I.I.I.I.I.I.I.x l.F.F.V.n.b.b.b.b.b.b.b.b.b.b.b.b.b.b.b.b.b.b.S.G.A.9.y F I.I.I.I.I.I.I.I.I.I.I.I.I.I.I.I.I.",
"I.I.I.I.I.I.I.I.I.I.I.I.I.I.I.I.j z.D.F.G.F.C.b.b.b.b.b.b.b.b.b.b.b.b.b.b.b.b.b.b.Z.G.F.A.w.u D I.I.I.I.I.I.I.I.I.I.I.I.I.I.I.I.",
"I.I.I.I.I.I.I.I.I.I.I.I.I.I.d z z.D.G.F.F.G.Z.b.b.b.b.b.b.b.b.b.b.b.d.b.b.b.b.b.b.m.Z.G.G.g.n . A S I.I.I.I.I.I.I.I.I.I.I.I.I.I.",
"I.I.I.I.I.I.I.I.I.I.I.I.I.n r.h.A.G.G.F.G.G.Z.m.m.m.b.b.b.b.b.b.b.b.b.b.b.b.b.b.f.v.M.F.Z.B.j.j / ! Q I.I.I.I.I.I.I.I.I.I.I.I.I.",
"I.I.I.I.I.I.I.I.I.I.I.h z l.b.m.D.G.F.G.F.F.C.m.D.B.b.m.m.b.b.b.b.b.b.b.b.b.b.n.m.n.C.D.m.b.j.f f h t G G I.I.I.I.I.I.I.I.I.I.I.",
"I.I.I.I.I.I.I.I.I.f g <.c.b.b.m.F.G.G.F.F.V.m.b.b.m.B.D.D.M.b.b.b.b.b.b.b.b.f.n.Z.F.F.D.f.b.j.j f f j e 7 / S I.I.I.I.I.I.I.I.I.",
"I.I.I.I.I.I.I.I.I.f k 2.s.n.b.b.m.M.B.B.B.V.Z.Z.C.m.B.G.G.V.b.b.b.b.b.b.b.b.m.A.F.G.G.F.m.u.5.f f f g 6 ,./ S I.I.I.I.I.I.I.I.I.",
"I.I.I.I.I.I.I.I.I.g 9 1.w.s.b.b.b.b.b.b.b.Z.G.G.G.Z.B.Z.C.m.b.f.b.b.n.B.M.n.B.G.G.F.F.C.i.5.7 f f g 9 2.8.p E I.I.I.I.I.I.I.I.I.",
"I.I.I.I.I.I.I.I.j 5.2.2.3.i.b.s.b.b.b.b.b.V.F.G.F.F.C.b.m.n.n.m.b.n.C.F.F.B.B.D.D.F.B.a.3.g f g h 9 ,.2.s.0.w D I.I.I.I.I.I.I.I.",
"I.I.I.I.I.I.I.I.f h.s.s.s.b.i.3.s.n.b.b.b.b.B.G.G.B.b.m.Z.F.F.Z.n.V.S.F.G.F.Z.f.m.m.i.2.8 f 8 6 ,.,.,.2.s.f.N Z I.I.I.I.I.I.I.I.",
"I.I.I.I.I.I.I.z h.v.f.b.b.b.s.y.q.a.n.n.b.b.m.B.B.b.b.m.F.G.G.F.M.S.G.F.G.Z.M.d.f.u.5.5 f 5 5.p.i.u.u.i.d.m.j.i B I.I.I.I.I.I.I.",
"I.I.I.I.I.I.I.x m.C.B.M.b.b.n.d.w.w.i.i.b.n.b.b.b.b.b.m.C.F.F.V.n.B.S.S.S.M.s.i.p.3.6 j j 5.i.f.b.n.b.n.b.n.u.9 G I.I.I.I.I.I.I.",
"I.I.I.I.I.I.I.n Z.G.F.D.m.b.b.b.d.q.>.2.a.s.d.a.b.b.b.b.b.C.V.b.b.b.b.f.v.a.w.,.6 ,.7 f h j.n.f.b.b.b.b.b.s.e.9 Q I.I.I.I.I.I.I.",
"I.I.I.I.I.d n b.D.G.G.D.m.b.b.b.f.q.>.,.2.2.2.3.s.n.b.b.f.f.f.d.b.b.b.s.3.2.2.,.8 h f h 6 u.d.d.b.b.b.b.b.w.2.6 e E S I.I.I.I.I.",
"I.I.I.I.j t.c.b.M.D.D.m.b.b.b.b.b.q.>.,.,.>.>.,.3.q.q.q.7.7.q.q.7.q.w.4.1.>.,.,.9 h j h ,.3.p.f.n.n.n.f.w.<.6 g h p ^ Z I.I.I.I.",
"I.I.I.I.j l.m.b.b.B.B.B.B.B.m.n.b.7.,.,.,.3.7.q.8.<.>.>.>.>.,.>.>.,.>.>.,.,.,.,.,.9 5 7 ,.>.5.j.j.j.l.y.,.>.9 f f g y Z I.I.I.I.",
"I.I.I.I.x l.b.b.b.b.B.F.F.G.Z.n.d.8.,.2.2.p.f.f.f.9.2.2.,.,.,.,.,.,.,.,.,.,.,.,.<.2.2.2.2.<.9 h f f g ,.,.,.9 f f h t G I.I.I.I.",
"I.I.I.J k.n.n.b.b.b.B.F.G.G.Z.b.f.8.4.a.a.f.b.b.b.v.a.a.3.,.,.,.,.,.,.,.,.,.,.2.a.a.d.a.d.7.,.6 h j h g ,.l h f f f j t G I.I.I.",
"I.I.I.J x.f.n.b.b.b.m.B.G.G.Z.b.b.a.a.n.b.b.b.b.b.b.n.f.i.p.4.<.w.i.q.>.,.>.3.i.b.b.f.b.f.a.p.p.j.c j h g h f f f f h e G I.I.I.",
"I.I.I.Y M a.b.b.b.b.b.n.V.Z.B.b.b.b.m.B.B.m.b.b.b.b.b.b.b.n.a.w.d.m.a.7.q.4.y.f.b.b.b.b.f.b.b.n.m.6.h f f f f f f h h e G I.I.I.",
"I.I.I.F e l.n.b.b.b.b.b.b.b.b.b.b.b.B.G.F.B.b.b.b.b.b.b.b.b.b.b.b.b.n.f.b.b.b.b.b.b.b.b.b.b.b.b.s.8.9 f f f f h f f f e G I.I.I.",
"I.I.I.F e l.b.b.b.b.b.b.b.b.b.b.b.b.B.F.G.B.b.b.b.b.b.b.b.b.b.b.b.b.b.b.b.b.b.b.b.b.b.b.b.b.f.s.3.,.9 f f f f j f f h w G I.I.I.",
"I.I.Q r j c j.f.n.b.b.b.b.n.n.b.b.b.n.M.B.C.S.Z.n.b.b.b.b.b.b.b.n.n.n.b.b.b.b.b.b.b.b.b.b.b.n.s.2.9 g f f f f h 9 9 l j r Q I.I.",
"I.S ! h l d c j.i.s.n.n.b.a.u.i.b.b.b.b.b.B.Z.C.n.b.b.b.b.b.b.b.i.u.u.i.b.n.n.b.b.b.b.b.n.n.s.y.0 g f f f f f h ,.,.6 l h ! S I.",
"I.S ! h ,.7 f h 9 w.s.s.s.8.,.2.a.b.b.b.b.b.b.b.b.b.b.b.b.b.b.a.<.,.,.2.a.s.s.b.b.b.b.f.s.z.y.0 h f f f f f f g ,.,.,.<.h ! S I.",
"I.S ! h 6 1.9 f h 0 2.2.2.1.,.,.2.i.n.n.b.b.b.b.b.b.b.b.b.b.i.<.h 9 ,.,.2.2.w.d.b.b.b.a.4.q z h f f f f f f 8 ,.,.,.,.,.5 ! S I.",
"I.S ! f g 6 ,.9 9 ,.>.,.,.,.,.1.,.i.n.n.b.b.b.b.b.b.b.b.9.6.c l 7 ,.,.,.,.,.2.q.8.8.7.n 8 h j f f f j h 9 9 9 ,.,.,.,.6 f ! S I.",
"I.S ! f f 8 6 ,.,.,.,.,.,.,.,.,.,.7.a.n.b.b.f.b.b.a.u.h.0 g f 7 ,.,.,.,.,.,.,.>.6 9 7 f f f f f h j f h ,.,.,.,.,.,.,.9 h ! S I.",
"I.S ! e f f g ,.,.,.,.,.,.,.,.,.,.,.8.s.s.a.s.s.s.8.9 h h h l ,.,.,.,.6 ,.,.,.6 h f f f f f f f j h j h 6 ,.,.,.,.,.9 f e ! S I.",
"I.I.I.V e f f h f h h g ,.1.,.,.,.,.1.2.2.2.2.2.2.2.,.6 ,.6 ,.,.8 h h h f h h h f f f f f f f f h j d h h 9 ,.,.,.,.9 e V I.I.I.",
"I.I.I.I.E p h f f j h 9 8 l 7 ,.,.,.,.,.,.,.6 7 5 g 7 7 l l l l j j j j j f j j f f g 9 9 9 7 j j 8 6 7 h h 9 ,.,.9 w ! I.I.I.I.",
"I.I.I.I.S y h h l g 9 ,.7 h 8 ,.,.,.,.9 9 9 8 f g 7 h f f f f f 5 8 7 7 8 5 7 8 h j 7 1.,.,.,.7 7 6 1.,.7 h h 9 9 8 y S I.I.I.I.",
"I.I.I.I.Z y h g 0 ,.,.,.,.7 8 ,.,.,.9 g f f f h ,.,.9 h h f f g ,.,.,.,.,.,.,.,.g f 7 ,.,.,.,.,.,.1.,.,.,.8 j f f h y Z I.I.I.I.",
"I.I.I.I.Z y h f h 0 ,.,.,.1.,.,.,.,.,.6 h f f h ,.,.,.,.6 g h ,.,.,.,.,.,.,.,.,.,.g 8 ,.,.,.1.,.,.,.,.,.,.l f f f h y A I.I.I.I.",
"I.I.I.I.I.V y h f g 9 ,.,.,.,.,.,.,.,.,.9 h j h 6 ,.,.,.1.6 ,.,.,.,.,.,.,.,.,.,.,.6 0 ,.,.,.,.,.,.,.,.,.7 h f f h a V I.I.I.I.I.",
"I.I.I.I.I.I.V y f f h 6 ,.,.,.9 6 ,.,.,.,.9 8 8 ,.1.,.,.1.,.,.,.,.,.,.,.1.,.1.,.,.,.1.1.1.,.,.,.,.1.1.7 h f h j r V I.I.I.I.I.I.",
"I.I.I.I.I.I.I.G t f f h 6 ,.7 f f 9 ,.,.,.,.,.,.,.,.,.,.,.,.,.,.,.1.,.,.6 ,.,.,.,.6 ,.,.,.,.,.,.,.,.7 h f f j p B I.I.I.I.I.I.I.",
"I.I.I.I.I.I.I.I.F r h f h h h f h 7 1.1.,.,.,.1.,.,.,.,.,.,.1.,.1.,.,.,.g h 7 1.,.7 h g ,.,.,.,.,.7 h f f f t F I.I.I.I.I.I.I.I.",
"I.I.I.I.I.I.I.I.I.Q ! ! ! t h f h 6 >.,.,.,.,.,.,.1.1.,.,.1.,.,.1.1.6 5 f j 8 ,.,.7 f f g 8 8 l 7 g p ! ! ! V I.I.I.I.I.I.I.I.I.",
"I.I.I.I.I.I.I.I.I.I.S S S X w f j 7 6 ,.1.,.1.1.1.6 9 9 9 9 ,.,.>.6 7 f f f g 9 9 g f f f f f f h p W S S S I.I.I.I.I.I.I.I.I.I.",
"I.I.I.I.I.I.I.I.I.I.I.I.I.S E e j f 7 6 6 ,.6 ,.,.g f h j j h ,.,.5 j f f f f f f f f h f f f f e E S I.I.I.I.I.I.I.I.I.I.I.I.I.",
"I.I.I.I.I.I.I.I.I.I.I.I.I.I.I.Q e h f h h h h h h f f f j h j h h f f f j h j h f f j j f f h e V I.I.I.I.I.I.I.I.I.I.I.I.I.I.I.",
"I.I.I.I.I.I.I.I.I.I.I.I.I.I.I.D E p h h h f f f j f f f h j h j f f f f f j h j f f h h h h p E D I.I.I.I.I.I.I.I.I.I.I.I.I.I.I.",
"I.I.I.I.I.I.I.I.I.I.I.I.I.I.I.D S ^ y y y e h h h f h h h h f h h h f h f h z f h h e r y y ^ S D I.I.I.I.I.I.I.I.I.I.I.I.I.I.I.",
"I.I.I.I.I.I.I.I.I.I.I.I.I.I.I.I.I.Z D D D . e e e e e e e e e w e e e e e w w w e e . Z Z D Z I.I.I.I.I.I.I.I.I.I.I.I.I.I.I.I.I.",
"I.I.I.I.I.I.I.I.I.I.I.I.I.I.I.I.I.I.I.I.I.F G G G G F F B G G G B G G A B B F B F G G I.I.I.I.I.I.I.I.I.I.I.I.I.I.I.I.I.I.I.I.I.",
"I.I.I.I.I.I.I.I.I.I.I.I.I.I.I.I.I.I.I.I.I.| [ [ [ { T - 1 1 1 1 1 1 1 1 I ` [ [ [ [ | I.I.I.I.I.I.I.I.I.I.I.I.I.I.I.I.I.I.I.I.I.",
"I.I.I.I.I.I.I.I.I.I.I.I.I.I.I.I.I.I.I.I.I.P.I.I.I.I.X.@ $ @.@.* * * * 3 U } I.I.I.I.P.I.I.I.I.I.I.I.I.I.I.I.I.I.I.I.I.I.I.I.I.I.",
"I.I.I.I.I.I.I.I.I.I.I.I.I.I.I.I.I.I.I.I.P.P.P.P.P.I.X.o * *.&.& & * * 3 I { I.P.P.P.P.P.I.I.I.I.I.I.I.I.I.I.I.I.I.I.I.I.I.I.I.I.",
"I.I.I.I.I.I.I.I.I.I.I.I.I.I.I.I.I.I.I.P.P.P.P.P.J.I...@ &.;.&.& & & m 3 H ] I.P.P.P.P.P.P.I.I.I.I.I.I.I.I.I.I.I.I.I.I.I.I.I.I.I.",
"I.I.I.I.I.I.I.I.I.I.I.I.I.I.I.I.I.I.P.P.P.P.P.I.I...; & =.:.=.%.m & & % 2 R ] I.I.P.P.P.P.P.I.I.I.I.I.I.I.I.I.I.I.I.I.I.I.I.I.I.",
"I.I.I.I.I.I.I.I.I.I.I.I.I.I.I.I.I.I.P.P.P.P.I.K.O.3 @.#.-.:.:.=.m & & & m 1 R } J.I.P.P.P.P.I.I.I.I.I.I.I.I.I.I.I.I.I.I.I.I.I.I.",
"I.I.I.I.I.I.I.I.I.I.I.I.I.I.I.I.I.I.I.P.P.I.K.+.+ #.*.*.;.;.:.=.m & & & 3 & : U | J.I.P.P.I.I.I.I.I.I.I.I.I.I.I.I.I.I.I.I.I.I.I.",
"I.I.I.I.I.I.I.I.I.I.I.I.I.I.I.I.I.I.I.I.P.I.O.+ %.%.% # &.:.;.=.m % m 3 P : & : U { I.P.I.I.I.I.I.I.I.I.I.I.I.I.I.I.I.I.I.I.I.I.",
"I.I.I.I.I.I.I.I.I.I.I.I.I.I.I.I.I.I.I.I.I.I...O $ = ; o.& @.&.=.m m 4 K ' T   K A [ I.I.I.I.I.I.I.I.I.I.I.I.I.I.I.I.I.I.I.I.I.I.",
"I.I.I.I.I.I.I.I.I.I.I.I.I.I.I.I.I.I.I.I.I.I.+.1 > > ..L., + & @.% : < ) H.} ` ` ` | I.I.I.I.I.I.I.I.I.I.I.I.I.I.I.I.I.I.I.I.I.I.",
"I.I.I.I.I.I.I.I.I.I.I.I.I.I.I.I.I.I.I.I.I.I.J.J.J.J.P.J.J.2 o o o   ` J.J.P.P.P.P.P.I.I.I.I.I.I.I.I.I.I.I.I.I.I.I.I.I.I.I.I.I.I."
};
