/* XPM */
static char *result[] = {
/* columns rows colors chars-per-pixel */
"64 64 10 1 ",
"  c #5A2314",
". c #763C1C",
"X c #1A6626",
"o c #190657",
"O c #AB5E20",
"+ c #138513",
"@ c #65A520",
"# c #89C826",
"$ c #3F3B93",
"% c #65A520",
/* pixels */
"%%%%%%%%%%%%%%%%%%%%%%%%%%%%%%%%%%%%%%%%%%%%%%%%%%%%%%%%%%%%%%%%",
"%%%%%%%%%%%%%%%%%%%%%%%%%%%%%%%%%%%%%%%%%%%%%%%%%%%%%%%%%%%%%%%%",
"%%%%%%%%%%%%%%%%%%%%%%%%%%%%%%%%%%%%%%%%%%%%%%%%%%%%%%%%%%%%%%%%",
"%%%%%%%%%%%%%%%%%%%%%%%%%%%%%%%%%%%%%%%%%%%%%%%%%%%%%%%%%%%%%%%%",
"%%%%%%%%%%%%%%%%%%%%%%%%%%%%%%%%%%%%%%%%%%%%%%%%%%%%%%%%%%%%%%%%",
"%%%%%%%%%%%%%%%%%%%%%%%%%%%%%%%%%%%%%%%%%%%%%%%%%%%%%%%%%%%%%%%%",
"%%%%%%%%%%%%%%%%%%%%%%%%%%%%%%%%%%%%%%%%%%%%%%%%%%%%%%%%%%%%%%%%",
"%%%%%%%%%%%%%%%%%%%%%%%%%%%%%%%%%%%%%%%%%%%%%%%%%%%%%%%%%%%%%%%%",
"%%%%%%%%%%%%%%%%%%%%%%%%%%%XXXXXXXXXX%%%%%%%%%%%%%%%%%%%%%%%%%%%",
"%%%%%%%%%%%%%%%%%%%%%%%%%XX@@##@@@@++XX%%%%%%%%%%%%%%%%%%%%%%%%%",
"%%%%%%%%%%%%%%%%%%%%%%%%X@###@@@@@@@@@+X%%%%%%%%%%%%%%%%%%%%%%%%",
"%%%%%%%%%%%%%%%%%%%%%%%X@##@@@@@@@@@@@@@X%%%%%%%%%%%%%%%%%%%%%%%",
"%%%%%%%%%%%%%%%%%%%%%%X@##@@@@@@@@@@@@##@o%%%%%%%%%%%%%%%%%%%%%%",
"%%%%%%%%%%%%%%%%%%%%%X##@@@@@@@@@@@@@@@##+o%%%%%%%%%%%%%%%%%%%%%",
"%%%%%%%%%%%%%%%%%%%%X####@@@@@@@@@@@@@@###+o%%%%%%%%%%%%%%%%%%%%",
"%%%%%%%%%%%%%%%%%%XX#####@@@@@@@@@@@@@@@##@Xoo%%%%%%%%%%%%%%%%%%",
"%%%%%%%%%%%%%%%%XX@@#####@#@@@@@@@@@@@@@#@@XXXoo%%%%%%%%%%%%%%%%",
"%%%%%%%%%%%%%%%X+@@@####@@@@##@@@@@@@@###@@XXXX+o%%%%%%%%%%%%%%%",
"%%%%%%%%%%%%%%%X+@@@@@@@###@##@@@@@@@####@+XXX++o%%%%%%%%%%%%%%%",
"%%%%%%%%%%%%%%X+++@@@@@@####@@@@@@##@###@+XXX++@+o%%%%%%%%%%%%%%",
"%%%%%%%%%%%%%%X@@@@+@@@@@##@@###@####@@@+XX++++@@o%%%%%%%%%%%%%%",
"%%%%%%%%%%%%%X@@@@@@+@@@@@@@@###@###@@@+XX+@@@@@@+o%%%%%%%%%%%%%",
"%%%%%%%%%%%%%X###@@@@++@@@@@@@#@@@@@@+++XX@@@@@@@+o%%%%%%%%%%%%%",
"%%%%%%%%%%%%X@###@@@@+++++@@@@@@@@@+++XXX+@@@@@@++Xo%%%%%%%%%%%%",
"%%%%%%%%%%%X@@@#@@@@@++++++++++++++++++XX++@@@@++XXXo%%%%%%%%%%%",
"%%%%%%%%%%%X@@@@###@@+++@@@++++++++++++++++XXX+++XXXo%%%%%%%%%%%",
"%%%%%%%%%%o@@@@@###@@+@@@@@@@+++++++++@@@@++XXX+XXXXXo%%%%%%%%%%",
"%%%%%%%%%%o@@@@@@##@@@@@@@@@@@@+@@+++@@@@@@@@XXXXXXXXo%%%%%%%%%%",
"%%%%%%%%%%oX@@@@@@@@@@##@@@@@@@@@@@@@@@@@@@@@+XXXXXXXo%%%%%%%%%%",
"%%%%%%%%%%oX@@@@@@@@@@##@@@@@@@@@@@@@@@@@@@@++XXXXXXXo%%%%%%%%%%",
"%%%%%%%%%oXXX@@@@@@@@@@@##@@@@@@@@@@@@@@@@@@+XXXXX++XXo%%%%%%%%%",
"%%%%%%%%%oX+XX+@@@++@@@@@@@@@@@@+++@@@@@@@@+XXXXXX+++Xo%%%%%%%%%",
"%%%%%%%%%oX++XX++++++@@@@@@@@@@+X++++@@@@+XXXXXXX++++Xo%%%%%%%%%",
"%%%%%%%%%oXX+++++++++@@@@@@@@+XX++++++++XXXXXXX++++++Xo%%%%%%%%%",
"%%%%%%%%%oXXX+++++++++@@@@@+XXX+++++++XXXXXXXXX+++++XXo%%%%%%%%%",
"%%%%%%%%%%oXXXXXX+++++++++++++++XXXXXXXXXXXXXXXX++++Xo%%%%%%%%%%",
"%%%%%%%%%%%oXXXX+XX++++++XXXXXXXXXXXXXXX+++XX++XX++Xo%%%%%%%%%%%",
"%%%%%%%%%%%oXX++++X+++XXXX++XXXX++++++XX++++++++XXXXo%%%%%%%%%%%",
"%%%%%%%%%%%oXXX++++++++XXX++++X++++++++X++++++++XXXXo%%%%%%%%%%%",
"%%%%%%%%%%%%oXXX++++++++XX+++++++++++++++++++++XXXXo%%%%%%%%%%%%",
"%%%%%%%%%%%%%oXXX++XX+++++++++++++++++++++++++XXXXo%%%%%%%%%%%%%",
"%%%%%%%%%%%%%%oXXXXXX++++++++++++++XX++XX++++XXXXo%%%%%%%%%%%%%%",
"%%%%%%%%%%%%%%%oooXXX+++++++++++++XXX++XXXXXXXooo%%%%%%%%%%%%%%%",
"%%%%%%%%%%%%%%%%%%oXXX+++++XXXX++XXXXXXXXXXXXo%%%%%%%%%%%%%%%%%%",
"%%%%%%%%%%%%%%%%%%%oXXXXXXXXXXXXXXXXXXXXXXXXo%%%%%%%%%%%%%%%%%%%",
"%%%%%%%%%%%%%%%%%%%ooXXXXXXXXXXXXXXXXXXXXXXoo%%%%%%%%%%%%%%%%%%%",
"%%%%%%%%%%%%%%%%%%%%%oooXXXXXXXXXXXXXXXXooo%%%%%%%%%%%%%%%%%%%%%",
"%%%%%%%%%%%%%%%%%%%%%%%%oooooooooooooooo%%%%%%%%%%%%%%%%%%%%%%%%",
"%%%%%%%%%%%%%%%%%%%%%%%$$$$$ ......o$$$$$%%%%%%%%%%%%%%%%%%%%%%%",
"%%%%%%%%%%%%%%%%%%%%%%$$$$$$ .O....o$$$$$$%%%%%%%%%%%%%%%%%%%%%%",
"%%%%%%%%%%%%%%%%%%%%%$$$$$$$ OO....o$$$$$$$%%%%%%%%%%%%%%%%%%%%%",
"%%%%%%%%%%%%%%%%%%%%%$$$$$$ .OOO....o$$$$$$%%%%%%%%%%%%%%%%%%%%%",
"%%%%%%%%%%%%%%%%%%%%%$$$$$ OOOOO.....o$$$$$%%%%%%%%%%%%%%%%%%%%%",
"%%%%%%%%%%%%%%%%%%%%%%$$$ O. OOO...o..o$$$%%%%%%%%%%%%%%%%%%%%%%",
"%%%%%%%%%%%%%%%%%%%%%%%$$   $ .O..o$ooo$$%%%%%%%%%%%%%%%%%%%%%%%",
"%%%%%%%%%%%%%%%%%%%%%%%%$$$$$$   o$$$$$$%%%%%%%%%%%%%%%%%%%%%%%%",
"%%%%%%%%%%%%%%%%%%%%%%%%%%%%%%%%%%%%%%%%%%%%%%%%%%%%%%%%%%%%%%%%",
"%%%%%%%%%%%%%%%%%%%%%%%%%%%%%%%%%%%%%%%%%%%%%%%%%%%%%%%%%%%%%%%%",
"%%%%%%%%%%%%%%%%%%%%%%%%%%%%%%%%%%%%%%%%%%%%%%%%%%%%%%%%%%%%%%%%",
"%%%%%%%%%%%%%%%%%%%%%%%%%%%%%%%%%%%%%%%%%%%%%%%%%%%%%%%%%%%%%%%%",
"%%%%%%%%%%%%%%%%%%%%%%%%%%%%%%%%%%%%%%%%%%%%%%%%%%%%%%%%%%%%%%%%",
"%%%%%%%%%%%%%%%%%%%%%%%%%%%%%%%%%%%%%%%%%%%%%%%%%%%%%%%%%%%%%%%%",
"%%%%%%%%%%%%%%%%%%%%%%%%%%%%%%%%%%%%%%%%%%%%%%%%%%%%%%%%%%%%%%%%",
"%%%%%%%%%%%%%%%%%%%%%%%%%%%%%%%%%%%%%%%%%%%%%%%%%%%%%%%%%%%%%%%%"
};
